<svg width="177" height="26" viewBox="0 0 177 26" fill="none" xmlns="http://www.w3.org/2000/svg">
<path d="M7.76 25.36C5.92 25.36 4.46 25.03 3.38 24.37C2.32 23.69 1.57 22.75 1.13 21.55C0.69 20.33 0.47 18.9 0.47 17.26V8.5C0.47 6.82 0.69 5.38 1.13 4.18C1.57 2.96 2.32 2.02 3.38 1.36C4.46 0.699999 5.92 0.369999 7.76 0.369999C9.56 0.369999 10.96 0.669999 11.96 1.27C12.98 1.85 13.7 2.67 14.12 3.73C14.54 4.79 14.75 6.01 14.75 7.39V9.49H9.5V7.06C9.5 6.58 9.47 6.12 9.41 5.68C9.37 5.24 9.23 4.88 8.99 4.6C8.75 4.3 8.34 4.15 7.76 4.15C7.2 4.15 6.78 4.3 6.5 4.6C6.24 4.9 6.07 5.28 5.99 5.74C5.93 6.18 5.9 6.65 5.9 7.15V18.58C5.9 19.12 5.94 19.62 6.02 20.08C6.12 20.52 6.3 20.88 6.56 21.16C6.84 21.42 7.24 21.55 7.76 21.55C8.32 21.55 8.72 21.41 8.96 21.13C9.2 20.83 9.35 20.45 9.41 19.99C9.47 19.53 9.5 19.06 9.5 18.58V16.03H14.75V18.13C14.75 19.51 14.54 20.75 14.12 21.85C13.72 22.93 13.01 23.79 11.99 24.43C10.99 25.05 9.58 25.36 7.76 25.36ZM17.4943 25V7.66H22.3843V10.54C22.9443 9.54 23.5043 8.78 24.0643 8.26C24.6243 7.72 25.3043 7.45 26.1043 7.45C26.2643 7.45 26.4043 7.46 26.5243 7.48C26.6443 7.48 26.7543 7.5 26.8543 7.54V12.4C26.6343 12.3 26.3843 12.22 26.1043 12.16C25.8443 12.08 25.5643 12.04 25.2643 12.04C24.7043 12.04 24.1843 12.19 23.7043 12.49C23.2243 12.79 22.7843 13.2 22.3843 13.72V25H17.4943ZM28.9487 25V7.66H33.8387V25H28.9487ZM28.9187 4.72V1.33H33.8387V4.72H28.9187ZM42.2281 25.18C40.9281 25.18 39.9181 24.99 39.1981 24.61C38.4981 24.23 38.0181 23.68 37.7581 22.96C37.4981 22.22 37.3681 21.33 37.3681 20.29V10.87H35.6881V7.66H37.3681V2.38H42.3181V7.66H44.7781V10.87H42.3181V19.81C42.3181 20.31 42.4581 20.67 42.7381 20.89C43.0381 21.11 43.4081 21.22 43.8481 21.22C44.1081 21.22 44.3481 21.21 44.5681 21.19C44.7881 21.15 44.9881 21.12 45.1681 21.1V24.94C44.9081 24.98 44.4981 25.03 43.9381 25.09C43.3781 25.15 42.8081 25.18 42.2281 25.18ZM47.4936 25V7.66H52.3836V25H47.4936ZM47.4636 4.72V1.33H52.3836V4.72H47.4636ZM61.043 25.3C59.783 25.3 58.703 25.07 57.803 24.61C56.923 24.15 56.243 23.49 55.763 22.63C55.283 21.77 55.043 20.73 55.043 19.51V13.15C55.043 11.91 55.283 10.86 55.763 10C56.243 9.14 56.923 8.49 57.803 8.05C58.703 7.59 59.783 7.36 61.043 7.36C62.283 7.36 63.333 7.55 64.193 7.93C65.073 8.31 65.743 8.89 66.203 9.67C66.663 10.43 66.893 11.4 66.893 12.58V14.41H62.183V12.43C62.183 11.97 62.133 11.62 62.033 11.38C61.953 11.12 61.823 10.94 61.643 10.84C61.483 10.74 61.283 10.69 61.043 10.69C60.803 10.69 60.603 10.76 60.443 10.9C60.283 11.02 60.163 11.23 60.083 11.53C60.003 11.81 59.963 12.21 59.963 12.73V19.93C59.963 20.71 60.053 21.24 60.233 21.52C60.433 21.8 60.713 21.94 61.073 21.94C61.333 21.94 61.543 21.89 61.703 21.79C61.863 21.67 61.983 21.49 62.063 21.25C62.143 20.99 62.183 20.65 62.183 20.23V17.92H66.893V20.02C66.893 21.18 66.653 22.16 66.173 22.96C65.713 23.74 65.043 24.33 64.163 24.73C63.303 25.11 62.263 25.3 61.043 25.3ZM74.7763 25.3C73.2563 25.3 71.9863 24.96 70.9663 24.28C69.9663 23.6 69.1463 22.49 68.5063 20.95L71.8363 19.48C72.1563 20.26 72.5263 20.88 72.9463 21.34C73.3863 21.78 73.8663 22 74.3863 22C74.7663 22 75.0463 21.92 75.2263 21.76C75.4263 21.6 75.5263 21.38 75.5263 21.1C75.5263 20.64 75.3463 20.22 74.9863 19.84C74.6463 19.46 74.0263 18.9 73.1263 18.16L71.8662 17.11C70.9463 16.33 70.2163 15.58 69.6763 14.86C69.1563 14.12 68.8962 13.21 68.8962 12.13C68.8962 11.19 69.1363 10.36 69.6163 9.64C70.1163 8.92 70.7763 8.36 71.5963 7.96C72.4163 7.56 73.2963 7.36 74.2363 7.36C75.6563 7.36 76.8463 7.75 77.8063 8.53C78.7663 9.31 79.4363 10.41 79.8163 11.83L76.6663 13.27C76.5463 12.89 76.3763 12.51 76.1563 12.13C75.9363 11.75 75.6663 11.43 75.3463 11.17C75.0463 10.91 74.7163 10.78 74.3563 10.78C74.0363 10.78 73.7763 10.87 73.5763 11.05C73.3963 11.23 73.3063 11.47 73.3063 11.77C73.3063 12.15 73.5163 12.56 73.9363 13C74.3763 13.44 74.9763 13.97 75.7363 14.59L76.9663 15.67C77.4663 16.09 77.9563 16.54 78.4363 17.02C78.9163 17.5 79.3063 18.03 79.6063 18.61C79.9263 19.19 80.0863 19.85 80.0863 20.59C80.0863 21.59 79.8363 22.45 79.3363 23.17C78.8363 23.87 78.1763 24.4 77.3563 24.76C76.5563 25.12 75.6963 25.3 74.7763 25.3ZM81.3711 9.73V0.699998H85.3611L83.7411 9.73H81.3711Z" fill="white"/>
<path d="M102.155 25.36C100.315 25.36 98.8545 25.03 97.7745 24.37C96.7145 23.69 95.9645 22.75 95.5245 21.55C95.0845 20.33 94.8645 18.9 94.8645 17.26V8.5C94.8645 6.82 95.0845 5.38 95.5245 4.18C95.9645 2.96 96.7145 2.02 97.7745 1.36C98.8545 0.699999 100.315 0.369999 102.155 0.369999C103.955 0.369999 105.355 0.669999 106.355 1.27C107.375 1.85 108.095 2.67 108.515 3.73C108.935 4.79 109.145 6.01 109.145 7.39V9.49H103.895V7.06C103.895 6.58 103.865 6.12 103.805 5.68C103.765 5.24 103.625 4.88 103.385 4.6C103.145 4.3 102.735 4.15 102.155 4.15C101.595 4.15 101.175 4.3 100.895 4.6C100.635 4.9 100.465 5.28 100.385 5.74C100.325 6.18 100.295 6.65 100.295 7.15V18.58C100.295 19.12 100.335 19.62 100.415 20.08C100.515 20.52 100.695 20.88 100.955 21.16C101.235 21.42 101.635 21.55 102.155 21.55C102.715 21.55 103.115 21.41 103.355 21.13C103.595 20.83 103.745 20.45 103.805 19.99C103.865 19.53 103.895 19.06 103.895 18.58V16.03H109.145V18.13C109.145 19.51 108.935 20.75 108.515 21.85C108.115 22.93 107.405 23.79 106.385 24.43C105.385 25.05 103.975 25.36 102.155 25.36ZM117.529 25.3C116.289 25.3 115.209 25.09 114.289 24.67C113.389 24.25 112.689 23.62 112.189 22.78C111.709 21.94 111.469 20.89 111.469 19.63V13.03C111.469 11.77 111.709 10.72 112.189 9.88C112.689 9.04 113.389 8.41 114.289 7.99C115.209 7.57 116.289 7.36 117.529 7.36C118.769 7.36 119.839 7.57 120.739 7.99C121.659 8.41 122.369 9.04 122.869 9.88C123.369 10.72 123.619 11.77 123.619 13.03V19.63C123.619 20.89 123.369 21.94 122.869 22.78C122.369 23.62 121.659 24.25 120.739 24.67C119.839 25.09 118.769 25.3 117.529 25.3ZM117.559 22.06C117.879 22.06 118.129 21.98 118.309 21.82C118.489 21.64 118.609 21.4 118.669 21.1C118.749 20.78 118.789 20.4 118.789 19.96V12.7C118.789 12.26 118.749 11.89 118.669 11.59C118.609 11.27 118.489 11.03 118.309 10.87C118.129 10.69 117.879 10.6 117.559 10.6C117.239 10.6 116.989 10.69 116.809 10.87C116.629 11.03 116.499 11.27 116.419 11.59C116.339 11.89 116.299 12.26 116.299 12.7V19.96C116.299 20.4 116.339 20.78 116.419 21.1C116.499 21.4 116.629 21.64 116.809 21.82C116.989 21.98 117.239 22.06 117.559 22.06ZM126.391 25V7.66H131.281V10.54C131.841 9.54 132.401 8.78 132.961 8.26C133.521 7.72 134.201 7.45 135.001 7.45C135.161 7.45 135.301 7.46 135.421 7.48C135.541 7.48 135.651 7.5 135.751 7.54V12.4C135.531 12.3 135.281 12.22 135.001 12.16C134.741 12.08 134.461 12.04 134.161 12.04C133.601 12.04 133.081 12.19 132.601 12.49C132.121 12.79 131.681 13.2 131.281 13.72V25H126.391ZM137.815 25V7.66H142.705V9.4C143.345 8.76 144.005 8.26 144.685 7.9C145.385 7.54 146.115 7.36 146.875 7.36C147.595 7.36 148.185 7.54 148.645 7.9C149.125 8.24 149.485 8.72 149.725 9.34C149.965 9.94 150.085 10.63 150.085 11.41V25H145.225V12.1C145.225 11.68 145.155 11.36 145.015 11.14C144.875 10.92 144.615 10.81 144.235 10.81C144.035 10.81 143.795 10.87 143.515 10.99C143.255 11.09 142.985 11.24 142.705 11.44V25H137.815ZM158.69 25.3C157.43 25.3 156.35 25.08 155.45 24.64C154.55 24.18 153.86 23.52 153.38 22.66C152.9 21.78 152.66 20.73 152.66 19.51V13.15C152.66 11.91 152.9 10.86 153.38 10C153.86 9.14 154.55 8.49 155.45 8.05C156.37 7.59 157.45 7.36 158.69 7.36C159.97 7.36 161.03 7.58 161.87 8.02C162.73 8.46 163.37 9.11 163.79 9.97C164.23 10.83 164.45 11.89 164.45 13.15V16.63H157.49V19.96C157.49 20.4 157.54 20.76 157.64 21.04C157.74 21.32 157.88 21.52 158.06 21.64C158.24 21.76 158.45 21.82 158.69 21.82C158.93 21.82 159.14 21.77 159.32 21.67C159.52 21.55 159.67 21.37 159.77 21.13C159.89 20.89 159.95 20.56 159.95 20.14V18.31H164.45V19.99C164.45 21.75 163.94 23.08 162.92 23.98C161.9 24.86 160.49 25.3 158.69 25.3ZM157.49 14.35H159.95V12.61C159.95 12.15 159.89 11.79 159.77 11.53C159.67 11.27 159.52 11.09 159.32 10.99C159.14 10.89 158.92 10.84 158.66 10.84C158.42 10.84 158.21 10.9 158.03 11.02C157.87 11.14 157.74 11.35 157.64 11.65C157.54 11.93 157.49 12.34 157.49 12.88V14.35ZM167.172 25V7.66H172.062V10.54C172.622 9.54 173.182 8.78 173.742 8.26C174.302 7.72 174.982 7.45 175.782 7.45C175.942 7.45 176.082 7.46 176.202 7.48C176.322 7.48 176.432 7.5 176.532 7.54V12.4C176.312 12.3 176.062 12.22 175.782 12.16C175.522 12.08 175.242 12.04 174.942 12.04C174.382 12.04 173.862 12.19 173.382 12.49C172.902 12.79 172.462 13.2 172.062 13.72V25H167.172Z" fill="black"/>
</svg>
